<?xml version="1.0" encoding="iso-8859-1"?>

<svg xmlns="http://www.w3.org/2000/svg" style="display: none;">

	<symbol id="in" viewBox="0 0 490.732 490.732">
		<g stroke-width="0"></g><g stroke-linecap="round" stroke-linejoin="round"></g><g><g><g><path d="M472.366,0.003H18.36C8.219,0.003,0,8.222,0,18.363v454.005c0,10.143,8.219,18.361,18.36,18.361h454.012 c10.142,0,18.36-8.219,18.36-18.361V18.363C490.727,8.222,482.507,0.003,472.366,0.003z M130.375,403.808 c0,6.762-5.478,12.238-12.24,12.238H69.132c-6.756,0-12.24-5.477-12.24-12.238V189.625c0-6.763,5.484-12.24,12.24-12.24h49.003 c6.762,0,12.24,5.477,12.24,12.24V403.808z M130.375,127.482c0,6.763-5.478,12.24-12.24,12.24H69.132 c-6.756,0-12.24-5.478-12.24-12.24V83.969c0-6.763,5.484-12.24,12.24-12.24h49.003c6.762,0,12.24,5.477,12.24,12.24V127.482z M433.835,403.808c0,6.762-5.483,12.238-12.24,12.238h-49.003c-6.763,0-12.24-5.477-12.24-12.238v-90.436 c0-29.988-1.566-49.383-4.712-58.189c-3.14-8.807-8.237-15.649-15.3-20.526c-7.062-4.884-15.558-7.32-25.496-7.32 c-12.729,0-24.149,3.488-34.26,10.459c-10.11,6.977-17.038,16.211-20.79,27.717c-3.745,11.506-5.618,32.779-5.618,63.807v74.488 c0,6.762-5.483,12.238-12.24,12.238h-49.003c-6.756,0-12.24-5.477-12.24-12.238V189.625c0-6.763,5.483-12.24,12.24-12.24h43.771 c6.763,0,12.24,5.477,12.24,12.24v16.316c0,6.763,3.312,7.852,7.858,2.852c22.864-25.123,50.753-37.687,83.673-37.687 c16.212,0,31.028,2.919,44.455,8.758c13.422,5.838,23.58,13.292,30.466,22.356c6.885,9.063,11.683,19.351,14.382,30.857 c2.699,11.505,4.058,27.98,4.058,49.426V403.808L433.835,403.808z"></path></g></g></g>
	</symbol>

	<symbol id="insta" viewBox="0 0 20 20">
		<g id="SVGRepo_bgCarrier" stroke-width="0"></g><g id="SVGRepo_tracerCarrier" stroke-linecap="round" stroke-linejoin="round"></g><g id="SVGRepo_iconCarrier"> <title>instagram [#167]</title> <desc>Created with Sketch.</desc> <defs> </defs> <g id="Page-1" stroke="none" stroke-width="1"> <g id="Dribbble-Light-Preview" transform="translate(-340.000000, -7439.000000)"> <g id="icons" transform="translate(56.000000, 160.000000)"> <path d="M289.869652,7279.12273 C288.241769,7279.19618 286.830805,7279.5942 285.691486,7280.72871 C284.548187,7281.86918 284.155147,7283.28558 284.081514,7284.89653 C284.035742,7285.90201 283.768077,7293.49818 284.544207,7295.49028 C285.067597,7296.83422 286.098457,7297.86749 287.454694,7298.39256 C288.087538,7298.63872 288.809936,7298.80547 289.869652,7298.85411 C298.730467,7299.25511 302.015089,7299.03674 303.400182,7295.49028 C303.645956,7294.859 303.815113,7294.1374 303.86188,7293.08031 C304.26686,7284.19677 303.796207,7282.27117 302.251908,7280.72871 C301.027016,7279.50685 299.5862,7278.67508 289.869652,7279.12273 M289.951245,7297.06748 C288.981083,7297.0238 288.454707,7296.86201 288.103459,7296.72603 C287.219865,7296.3826 286.556174,7295.72155 286.214876,7294.84312 C285.623823,7293.32944 285.819846,7286.14023 285.872583,7284.97693 C285.924325,7283.83745 286.155174,7282.79624 286.959165,7281.99226 C287.954203,7280.99968 289.239792,7280.51332 297.993144,7280.90837 C299.135448,7280.95998 300.179243,7281.19026 300.985224,7281.99226 C301.980262,7282.98483 302.473801,7284.28014 302.071806,7292.99991 C302.028024,7293.96767 301.865833,7294.49274 301.729513,7294.84312 C300.829003,7297.15085 298.757333,7297.47145 289.951245,7297.06748 M298.089663,7283.68956 C298.089663,7284.34665 298.623998,7284.88065 299.283709,7284.88065 C299.943419,7284.88065 300.47875,7284.34665 300.47875,7283.68956 C300.47875,7283.03248 299.943419,7282.49847 299.283709,7282.49847 C298.623998,7282.49847 298.089663,7283.03248 298.089663,7283.68956 M288.862673,7288.98792 C288.862673,7291.80286 291.150266,7294.08479 293.972194,7294.08479 C296.794123,7294.08479 299.081716,7291.80286 299.081716,7288.98792 C299.081716,7286.17298 296.794123,7283.89205 293.972194,7283.89205 C291.150266,7283.89205 288.862673,7286.17298 288.862673,7288.98792 M290.655732,7288.98792 C290.655732,7287.16159 292.140329,7285.67967 293.972194,7285.67967 C295.80406,7285.67967 297.288657,7287.16159 297.288657,7288.98792 C297.288657,7290.81525 295.80406,7292.29716 293.972194,7292.29716 C292.140329,7292.29716 290.655732,7290.81525 290.655732,7288.98792" id="instagram-[#167]"> </path> </g> </g> </g> </g>
	</symbol>

	<symbol id="git" viewBox="0 0 20 20">
		<g id="SVGRepo_bgCarrier" stroke-width="0"></g><g id="SVGRepo_tracerCarrier" stroke-linecap="round" stroke-linejoin="round"></g><g id="SVGRepo_iconCarrier"> <title>github [#142]</title> <desc>Created with Sketch.</desc> <defs> </defs> <g id="Page-1" stroke="none" stroke-width="1"> <g id="Dribbble-Light-Preview" transform="translate(-140.000000, -7559.000000)"> <g id="icons" transform="translate(56.000000, 160.000000)"> <path d="M94,7399 C99.523,7399 104,7403.59 104,7409.253 C104,7413.782 101.138,7417.624 97.167,7418.981 C96.66,7419.082 96.48,7418.762 96.48,7418.489 C96.48,7418.151 96.492,7417.047 96.492,7415.675 C96.492,7414.719 96.172,7414.095 95.813,7413.777 C98.04,7413.523 100.38,7412.656 100.38,7408.718 C100.38,7407.598 99.992,7406.684 99.35,7405.966 C99.454,7405.707 99.797,7404.664 99.252,7403.252 C99.252,7403.252 98.414,7402.977 96.505,7404.303 C95.706,7404.076 94.85,7403.962 94,7403.958 C93.15,7403.962 92.295,7404.076 91.497,7404.303 C89.586,7402.977 88.746,7403.252 88.746,7403.252 C88.203,7404.664 88.546,7405.707 88.649,7405.966 C88.01,7406.684 87.619,7407.598 87.619,7408.718 C87.619,7412.646 89.954,7413.526 92.175,7413.785 C91.889,7414.041 91.63,7414.493 91.54,7415.156 C90.97,7415.418 89.522,7415.871 88.63,7414.304 C88.63,7414.304 88.101,7413.319 87.097,7413.247 C87.097,7413.247 86.122,7413.234 87.029,7413.87 C87.029,7413.87 87.684,7414.185 88.139,7415.37 C88.139,7415.37 88.726,7417.2 91.508,7416.58 C91.513,7417.437 91.522,7418.245 91.522,7418.489 C91.522,7418.76 91.338,7419.077 90.839,7418.982 C86.865,7417.627 84,7413.783 84,7409.253 C84,7403.59 88.478,7399 94,7399" id="github-[#142]"> </path> </g> </g> </g> </g>
	</symbol>

	<symbol id="face" viewBox="0 0 24 24">
		<g id="SVGRepo_bgCarrier" stroke-width="0"></g><g id="SVGRepo_tracerCarrier" stroke-linecap="round" stroke-linejoin="round"></g><g id="SVGRepo_iconCarrier"> <path d="M12 2.03998C6.5 2.03998 2 6.52998 2 12.06C2 17.06 5.66 21.21 10.44 21.96V14.96H7.9V12.06H10.44V9.84998C10.44 7.33998 11.93 5.95998 14.22 5.95998C15.31 5.95998 16.45 6.14998 16.45 6.14998V8.61998H15.19C13.95 8.61998 13.56 9.38998 13.56 10.18V12.06H16.34L15.89 14.96H13.56V21.96C15.9164 21.5878 18.0622 20.3855 19.6099 18.57C21.1576 16.7546 22.0054 14.4456 22 12.06C22 6.52998 17.5 2.03998 12 2.03998Z"></path> </g>
	</symbol>


</svg>